{
    "asset" : {
        "generator" : "Khronos glTF Blender I/O v1.4.40",
        "version" : "2.0"
    },
    "scene" : 0,
    "scenes" : [
        {
            "name" : "Scene",
            "nodes" : [
                0
            ]
        }
    ],
    "nodes" : [
        {
            "mesh" : 0,
            "name" : "Icosphere",
            "scale" : [
                10,
                10,
                10
            ],
            "translation" : [
                0,
                -0.09202089160680771,
                0
            ]
        }
    ],
    "materials" : [
        {
            "doubleSided" : true,
            "name" : "Material.002",
            "pbrMetallicRoughness" : {
                "metallicFactor" : 0,
                "roughnessFactor" : 0.5
            }
        }
    ],
    "meshes" : [
        {
            "name" : "Icosphere",
            "primitives" : [
                {
                    "attributes" : {
                        "POSITION" : 0,
                        "NORMAL" : 1,
                        "TEXCOORD_0" : 2,
                        "COLOR_0" : 3
                    },
                    "indices" : 4,
                    "material" : 0
                }
            ]
        }
    ],
    "accessors" : [
        {
            "bufferView" : 0,
            "componentType" : 5126,
            "count" : 4660,
            "max" : [
                0.9834932684898376,
                0.8209761381149292,
                0.9737968444824219
            ],
            "min" : [
                -0.9926717281341553,
                -1,
                -0.9347466826438904
            ],
            "type" : "VEC3"
        },
        {
            "bufferView" : 1,
            "componentType" : 5126,
            "count" : 4660,
            "type" : "VEC3"
        },
        {
            "bufferView" : 2,
            "componentType" : 5126,
            "count" : 4660,
            "type" : "VEC2"
        },
        {
            "bufferView" : 3,
            "componentType" : 5123,
            "count" : 4660,
            "normalized" : true,
            "type" : "VEC4"
        },
        {
            "bufferView" : 4,
            "componentType" : 5123,
            "count" : 4662,
            "type" : "SCALAR"
        }
    ],
    "bufferViews" : [
        {
            "buffer" : 0,
            "byteLength" : 55920,
            "byteOffset" : 0
        },
        {
            "buffer" : 0,
            "byteLength" : 55920,
            "byteOffset" : 55920
        },
        {
            "buffer" : 0,
            "byteLength" : 37280,
            "byteOffset" : 111840
        },
        {
            "buffer" : 0,
            "byteLength" : 37280,
            "byteOffset" : 149120
        },
        {
            "buffer" : 0,
            "byteLength" : 9324,
            "byteOffset" : 186400
        }
    ],
    "buffers" : [
        {
            "byteLength" : 195724,
            "uri" : "scene.bin"
        }
    ]
}
